<svg width="37" height="37" viewBox="0 0 37 37" fill="none" xmlns="http://www.w3.org/2000/svg">
<g clip-path="url(#clip0_1_369)">
<path d="M18.5204 33.061C19.7915 33.061 20.8219 32.0306 20.8219 30.7595C20.8219 29.4885 19.7915 28.4581 18.5204 28.4581C17.2494 28.4581 16.219 29.4885 16.219 30.7595C16.219 32.0306 17.2494 33.061 18.5204 33.061Z" fill="#044AB3"/>
<path d="M36.0694 11.3272C31.4854 6.40884 25.278 3.70011 18.59 3.70004C11.9025 3.70011 5.69512 6.40884 1.11099 11.3272C0.585842 11.8907 0.616876 12.7733 1.18038 13.2985C1.74396 13.8237 2.62652 13.7927 3.15174 13.2291C7.20228 8.88317 12.685 6.48974 18.5905 6.48967C24.4954 6.48974 29.9781 8.88317 34.0287 13.2291C34.3034 13.5239 34.6759 13.673 35.0493 13.673C35.3899 13.673 35.7313 13.549 36 13.2985C36.5635 12.7732 36.5946 11.8907 36.0694 11.3272Z" fill="#044AB3"/>
<path d="M30.9477 17.0874C27.5592 13.6733 23.1705 11.7931 18.5899 11.7933C14.0083 11.7933 9.61955 13.6736 6.2321 17.0875C5.68952 17.6343 5.69293 18.5175 6.23977 19.06C6.78661 19.6026 7.66974 19.5992 8.21232 19.0524C11.072 16.1703 14.7576 14.583 18.5899 14.5829C22.4214 14.5828 26.1069 16.1701 28.9676 19.0525C29.2403 19.3272 29.5989 19.4647 29.9577 19.4647C30.3128 19.4647 30.6682 19.3299 30.9403 19.0599C31.487 18.5172 31.4904 17.6341 30.9477 17.0874Z" fill="#044AB3"/>
<path d="M25.3656 22.8643C23.5509 21.0664 20.9498 19.9497 18.5771 19.9497C18.5768 19.9497 18.5763 19.9497 18.576 19.9497H18.4756C18.4751 19.9497 18.4749 19.9497 18.4745 19.9497C16.1017 19.9497 13.5004 21.0665 11.6858 22.8643C11.1386 23.4064 11.1345 24.2896 11.6767 24.8368C11.9494 25.1121 12.3084 25.25 12.6675 25.25C13.0223 25.25 13.3772 25.1154 13.6491 24.846C14.9409 23.5662 16.8349 22.7393 18.4746 22.7393C18.4749 22.7393 18.4751 22.7393 18.4753 22.7393H18.5763C18.5765 22.7393 18.5766 22.7393 18.5769 22.7393C20.2164 22.7393 22.1105 23.5662 23.4022 24.846C23.9494 25.3881 24.8326 25.3842 25.3747 24.8368C25.917 24.2896 25.9128 23.4064 25.3656 22.8643Z" fill="#044AB3"/>
</g>
<defs>
<clipPath id="clip0_1_369">
<rect width="35.7073" height="35.7073" fill="white" transform="translate(0.736572 0.526733)"/>
</clipPath>
</defs>
</svg>
