<svg width="37" height="37" viewBox="0 0 37 37" fill="none" xmlns="http://www.w3.org/2000/svg">
<g clip-path="url(#clip0_1_386)">
<path d="M19.5965 7.3754H15.4485C14.8621 7.3754 14.4023 7.85508 14.4023 8.42152V23.3189C14.4023 23.8966 14.8707 24.365 15.4485 24.365C16.0262 24.365 16.4946 23.8966 16.4946 23.3189V17.8884C17.4654 17.8829 18.8861 17.8757 19.5966 17.8757C20.9987 17.8757 22.3283 17.3331 23.3402 16.3478C24.3648 15.3502 24.929 14.0283 24.929 12.6256C24.929 11.2229 24.3648 9.90093 23.3402 8.90329C22.3282 7.91806 20.9987 7.3754 19.5965 7.3754ZM19.5965 15.7835C18.8902 15.7835 17.4896 15.7905 16.5174 15.796C16.4997 12.5378 16.5099 13.6335 16.4977 9.46763H19.5965C21.3529 9.46763 22.8367 10.9138 22.8367 12.6256C22.8367 14.3374 21.3529 15.7835 19.5965 15.7835Z" fill="#044AB3"/>
<path d="M29.4393 5.02078C26.5415 2.12291 22.6884 0.526962 18.5901 0.526962C14.4918 0.526962 10.6388 2.12291 7.74096 5.02078C-0.683387 13.4451 3.31786 27.9671 14.9636 30.781V34.4908C14.9636 35.4521 15.7457 36.2343 16.7071 36.2343H20.4731C21.4345 36.2343 22.2166 35.4521 22.2166 34.4908V30.781C33.8736 27.9644 37.8578 13.4392 29.4393 5.02078ZM20.1244 34.1421H17.0558V31.137C18.0733 31.238 19.1069 31.238 20.1244 31.137V34.1421ZM20.9827 28.9055C12.9171 30.3773 5.33936 24.2262 5.33936 15.87C5.33936 8.56348 11.2836 2.61919 18.5901 2.61919C25.8967 2.61919 31.8409 8.56348 31.8409 15.87C31.8409 22.2664 27.2856 27.7553 20.9827 28.9055Z" fill="#044AB3"/>
</g>
<defs>
<clipPath id="clip0_1_386">
<rect width="35.7073" height="35.7073" fill="white" transform="translate(0.736572 0.526909)"/>
</clipPath>
</defs>
</svg>
